<?xml version="1.0" standalone="no"?>
<!DOCTYPE svg PUBLIC "-//W3C//DTD SVG 20010904//EN"
 "http://www.w3.org/TR/2001/REC-SVG-20010904/DTD/svg10.dtd">
<svg version="1.0" xmlns="http://www.w3.org/2000/svg"
 width="3334.000000pt" height="3334.000000pt" viewBox="0 0 3334.000000 3334.000000"
 preserveAspectRatio="xMidYMid meet">
<metadata>
Created by potrace 1.14, written by Peter Selinger 2001-2017
</metadata>
<g transform="translate(0.000000,3334.000000) scale(0.100000,-0.100000)"
fill="#000000" stroke="none">
<path d="M0 24305 c0 -6017 3 -9035 10 -9035 6 0 10 -7 10 -15 0 -8 7 -15 15
-15 8 0 15 -7 15 -15 0 -8 5 -15 11 -15 14 0 39 -25 39 -39 0 -6 7 -11 15 -11
8 0 15 -7 15 -15 0 -10 10 -15 30 -15 20 0 30 -5 30 -15 0 -9 9 -15 25 -15 14
0 25 -4 25 -10 0 -5 11 -10 25 -10 16 0 25 -6 25 -15 0 -13 22 -15 140 -15
118 0 140 -2 140 -15 0 -11 11 -15 40 -15 22 0 40 -4 40 -10 0 -5 7 -10 15
-10 8 0 15 -7 15 -15 0 -9 9 -15 25 -15 16 0 25 -6 25 -15 0 -9 9 -15 25 -15
16 0 25 -6 25 -15 0 -10 10 -15 30 -15 17 0 30 -4 30 -10 0 -5 11 -10 25 -10
16 0 25 -6 25 -15 0 -8 7 -15 15 -15 12 0 15 -14 15 -70 l0 -70 55 0 c30 0 55
-4 55 -10 0 -5 18 -10 40 -10 29 0 40 -4 40 -15 0 -10 10 -15 30 -15 l30 0 0
-95 0 -95 94 0 c82 0 95 2 99 18 3 9 5 -20 6 -65 1 -101 6 -113 42 -113 19 0
29 -5 29 -15 0 -9 9 -15 24 -15 30 0 36 -20 36 -132 l0 -88 35 0 c24 0 35 -5
35 -15 0 -9 9 -15 25 -15 25 0 25 -1 25 -80 l0 -80 45 0 c33 0 45 -4 45 -15 0
-8 9 -15 20 -15 15 0 20 -7 20 -25 0 -18 5 -25 20 -25 16 0 20 -7 20 -30 0
-23 4 -30 20 -30 16 0 20 -7 20 -35 0 -35 0 -35 45 -35 l45 0 0 -60 c0 -53 2
-60 20 -60 17 0 20 -7 20 -40 0 -36 3 -40 25 -40 16 0 25 6 25 15 0 10 11 15
35 15 l35 0 0 -47 c0 -62 9 -93 26 -93 8 0 14 -4 14 -10 0 -5 7 -10 15 -10 8
0 15 -7 15 -15 0 -8 5 -15 10 -15 6 0 10 -43 10 -110 l0 -110 30 0 c20 0 30
-5 30 -15 0 -8 5 -15 10 -15 6 0 10 -20 10 -45 0 -38 3 -45 20 -45 16 0 20 -7
20 -35 0 -19 5 -35 10 -35 6 0 10 -7 10 -15 0 -10 10 -15 30 -15 l30 0 0 -91
c0 -96 9 -119 49 -119 12 0 21 -6 21 -15 0 -8 5 -15 10 -15 6 0 10 -33 10 -80
0 -73 2 -80 20 -80 14 0 20 -7 20 -24 0 -15 7 -26 20 -29 15 -4 20 -14 20 -41
0 -29 4 -36 20 -36 16 0 20 -7 20 -35 0 -28 4 -35 20 -35 18 0 20 -7 20 -65 0
-63 1 -65 25 -65 16 0 25 -6 25 -15 0 -8 9 -15 20 -15 17 0 20 -7 20 -49 0
-46 1 -49 31 -55 17 -3 44 -6 60 -6 27 0 29 -3 29 -40 0 -33 -3 -40 -20 -40
-11 0 -20 -4 -20 -9 0 -21 13 -41 26 -41 9 0 14 -12 14 -35 0 -28 4 -35 20
-35 16 0 20 -7 20 -35 0 -31 3 -35 25 -35 20 0 25 -5 26 -27 0 -16 3 -22 6
-15 6 14 33 16 33 2 0 -5 18 -10 40 -10 l40 0 0 -55 c0 -40 4 -55 14 -55 20 0
26 -23 26 -91 0 -52 2 -59 20 -59 13 0 20 -7 20 -20 0 -15 7 -20 25 -20 18 0
25 -5 25 -20 0 -13 7 -20 20 -20 18 0 20 -7 20 -60 0 -53 2 -60 20 -60 15 0
20 -7 20 -25 0 -18 5 -25 20 -25 13 0 20 -7 20 -20 0 -13 7 -20 19 -20 12 0
21 -9 25 -25 4 -14 13 -25 21 -25 11 0 15 -13 15 -55 0 -52 1 -55 25 -55 24 0
25 -2 25 -70 0 -56 3 -70 15 -70 8 0 15 -7 15 -15 0 -8 5 -15 11 -15 19 0 39
-28 39 -54 0 -19 5 -26 20 -26 17 0 20 -7 20 -40 0 -33 3 -40 20 -40 15 0 20
-7 20 -25 0 -18 5 -25 20 -25 16 0 20 -7 20 -30 0 -25 4 -30 25 -30 14 0 25
-4 25 -10 0 -5 9 -10 20 -10 16 0 20 -7 20 -30 0 -23 4 -30 20 -30 16 0 20 -7
20 -34 0 -29 4 -34 30 -40 18 -3 30 -12 30 -21 0 -8 5 -15 10 -15 6 0 10 -11
10 -25 0 -16 6 -25 15 -25 8 0 15 -7 15 -15 0 -9 9 -15 24 -15 27 0 36 -21 36
-87 0 -36 3 -43 20 -43 16 0 20 -7 21 -32 1 -18 3 -25 6 -15 2 9 11 17 19 17
10 0 14 -13 14 -45 0 -38 3 -45 20 -45 11 0 20 -4 20 -10 0 -5 9 -10 20 -10
11 0 20 -4 20 -10 0 -5 9 -10 20 -10 16 0 19 -8 22 -62 3 -57 5 -63 26 -66 14
-2 22 -10 22 -23 0 -12 7 -19 20 -19 13 0 20 -7 20 -20 0 -13 7 -20 20 -20 18
0 20 -7 20 -65 0 -58 2 -65 20 -65 11 0 20 -4 20 -10 0 -5 9 -10 20 -10 17 0
20 -7 20 -50 l0 -49 50 -7 c32 -4 50 -11 50 -20 0 -8 7 -14 15 -14 11 0 15
-12 15 -45 0 -38 3 -45 20 -45 17 0 20 -7 20 -40 0 -33 3 -40 20 -40 11 0 20
-4 20 -10 0 -5 9 -10 20 -10 18 0 20 -7 20 -55 l0 -55 45 0 c38 0 45 -3 45
-20 0 -13 7 -20 20 -20 17 0 20 -7 20 -45 0 -41 2 -45 25 -45 16 0 25 -6 25
-15 0 -9 9 -15 25 -15 16 0 25 -6 25 -15 0 -8 5 -15 10 -15 6 0 10 -13 10 -30
0 -23 4 -30 20 -30 17 0 20 -7 20 -40 0 -36 3 -40 25 -40 14 0 25 -4 25 -10 0
-5 9 -10 20 -10 17 0 20 -7 20 -49 l0 -49 40 -7 c30 -5 40 -11 40 -26 0 -12 7
-19 20 -19 17 0 20 -7 20 -40 0 -33 3 -40 20 -40 13 0 20 -7 20 -20 0 -16 7
-20 35 -20 25 0 35 -4 35 -15 0 -9 12 -18 30 -21 28 -6 30 -10 30 -50 0 -37 3
-44 19 -44 15 0 21 -10 26 -40 4 -25 12 -40 21 -40 8 0 14 -9 14 -20 0 -11 6
-20 14 -20 7 0 16 -9 19 -20 3 -14 14 -20 31 -20 24 0 26 -3 26 -45 0 -38 3
-45 20 -45 16 0 20 -7 20 -30 0 -28 2 -30 40 -30 38 0 40 -2 40 -30 0 -23 4
-30 20 -30 11 0 20 -4 20 -10 0 -5 9 -10 20 -10 11 0 20 -4 20 -10 0 -5 11
-10 25 -10 18 0 25 -5 25 -20 0 -13 7 -20 20 -20 15 0 20 -7 20 -25 0 -18 5
-25 20 -25 11 0 20 -7 20 -15 0 -8 9 -15 20 -15 11 0 20 -4 20 -10 0 -5 9 -10
20 -10 16 0 20 -7 20 -30 0 -23 4 -30 20 -30 11 0 20 -7 20 -15 0 -9 9 -15 25
-15 14 0 25 -4 25 -10 0 -5 9 -10 20 -10 11 0 20 -7 20 -15 0 -8 9 -15 19 -15
13 0 21 -9 26 -30 5 -23 12 -30 31 -30 13 0 24 -4 24 -10 0 -5 14 -10 30 -10
27 0 30 -3 30 -30 0 -25 4 -30 25 -30 18 0 25 -5 25 -20 0 -13 7 -20 20 -20
16 0 20 -7 20 -35 0 -28 4 -35 20 -35 11 0 20 -4 20 -10 0 -5 6 -10 14 -10 7
0 16 -9 19 -20 3 -12 14 -20 26 -20 18 0 21 -6 21 -40 0 -33 3 -40 20 -40 13
0 20 -7 20 -20 0 -15 7 -20 25 -20 23 0 25 -4 25 -40 0 -33 3 -40 20 -40 17 0
20 -7 20 -45 0 -38 3 -45 20 -45 13 0 20 -7 20 -20 0 -13 7 -20 20 -20 17 0
20 -7 20 -40 0 -33 3 -40 20 -40 13 0 20 -7 20 -20 0 -13 7 -20 20 -20 16 0
20 -7 20 -30 0 -23 4 -30 20 -30 11 0 20 -4 20 -10 0 -5 11 -10 25 -10 20 0
25 -5 25 -25 0 -18 5 -25 20 -25 13 0 20 -7 20 -20 0 -13 7 -20 20 -20 17 0
20 -7 20 -40 0 -33 3 -40 20 -40 15 0 20 -7 20 -25 0 -18 5 -25 20 -25 17 0
20 -7 20 -40 0 -36 3 -40 25 -40 18 0 25 -5 25 -20 0 -13 7 -20 20 -20 17 0
20 -7 20 -40 0 -33 3 -40 20 -40 15 0 20 -7 20 -25 0 -18 5 -25 20 -25 13 0
20 -7 20 -20 0 -13 7 -20 20 -20 17 0 20 -7 20 -40 0 -22 5 -40 10 -40 6 0 10
16 10 35 0 24 5 35 15 35 9 0 15 9 15 25 0 14 5 25 10 25 6 0 10 7 10 15 0 8
5 15 10 15 6 0 10 -7 10 -15 0 -8 9 -15 20 -15 17 0 20 -7 20 -40 0 -33 3 -40
20 -40 13 0 20 -7 20 -20 0 -13 7 -20 20 -20 13 0 20 -7 20 -20 0 -13 7 -20
20 -20 17 0 20 -7 20 -45 0 -38 3 -45 20 -45 13 0 20 -7 20 -20 0 -15 7 -20
25 -20 18 0 25 -5 25 -20 0 -13 7 -20 20 -20 13 0 20 -7 20 -20 0 -13 7 -20
20 -20 17 0 20 -7 20 -40 0 -33 3 -40 20 -40 13 0 20 -7 20 -18 0 -11 11 -24
25 -30 14 -6 25 -18 25 -27 0 -8 7 -15 15 -15 8 0 15 -9 15 -20 0 -15 7 -20
25 -20 23 0 25 -4 25 -40 0 -33 3 -40 20 -40 13 0 20 -7 20 -20 0 -13 7 -20
20 -20 15 0 20 -7 20 -25 0 -18 5 -25 20 -25 13 0 20 -7 20 -20 0 -13 7 -20
20 -20 11 0 20 -4 20 -10 0 -5 6 -10 14 -10 8 0 16 -7 20 -15 3 -8 15 -15 26
-15 11 0 20 -7 20 -15 0 -9 9 -15 25 -15 18 0 25 -5 25 -20 0 -13 7 -20 20
-20 13 0 20 -7 20 -20 0 -13 7 -20 20 -20 15 0 20 -7 20 -25 0 -18 5 -25 20
-25 13 0 20 -7 20 -20 0 -12 7 -20 16 -20 46 0 44 51 44 -1289 l0 -1261 -110
0 c-91 0 -110 -3 -110 -15 0 -13 -27 -15 -180 -15 -153 0 -180 2 -180 15 0 21
-18 19 -23 -2 -4 -17 -5 -17 -6 0 -1 13 -10 17 -41 17 -29 0 -40 4 -40 15 0 9
-9 15 -25 15 -14 0 -25 5 -25 10 0 6 -7 10 -15 10 -8 0 -15 7 -15 15 0 8 -7
15 -15 15 -8 0 -15 7 -15 15 0 8 -4 15 -10 15 -5 0 -10 11 -10 25 0 16 -6 25
-15 25 -8 0 -15 7 -15 15 0 8 -7 15 -15 15 -10 0 -15 10 -15 30 0 17 -5 30
-11 30 -19 0 -39 28 -39 54 0 16 -6 26 -15 26 -8 0 -15 5 -15 10 0 6 -7 10
-15 10 -8 0 -15 7 -15 15 0 8 -4 15 -10 15 -5 0 -10 14 -10 30 0 20 -5 30 -15
30 -9 0 -15 9 -15 25 0 16 -6 25 -15 25 -8 0 -15 7 -15 15 0 8 -5 15 -11 15
-6 0 -17 6 -25 14 -11 11 -11 16 -1 20 9 5 9 7 0 12 -7 3 -13 12 -13 20 0 8
-7 14 -15 14 -8 0 -15 7 -15 15 0 8 -7 15 -15 15 -9 0 -15 9 -15 25 0 14 -4
25 -10 25 -5 0 -10 7 -10 15 0 8 -7 15 -15 15 -8 0 -15 7 -15 15 0 8 -7 15
-15 15 -8 0 -15 5 -15 10 0 6 -7 10 -15 10 -8 0 -15 7 -15 15 0 8 -4 15 -10
15 -5 0 -10 7 -10 15 0 8 -7 15 -15 15 -8 0 -15 5 -15 10 0 6 -13 10 -30 10
-20 0 -30 5 -30 15 0 8 -4 15 -10 15 -5 0 -10 7 -10 15 0 10 -10 15 -30 15
-20 0 -30 5 -30 15 0 9 -9 15 -25 15 -14 0 -25 5 -25 10 0 6 -13 10 -30 10
-32 0 -41 16 -12 23 10 3 6 5 -10 6 -18 1 -28 7 -28 16 0 9 -10 15 -26 15 -26
0 -54 20 -54 39 0 6 -13 11 -30 11 -20 0 -30 5 -30 15 0 21 -18 19 -23 -2 -4
-17 -5 -17 -6 0 -1 11 -9 17 -26 17 -16 0 -25 6 -25 15 0 12 -13 15 -55 15
-30 0 -55 5 -55 10 0 6 -25 10 -55 10 -42 0 -55 3 -55 15 0 13 -31 15 -215 15
-184 0 -215 -2 -215 -15 0 -12 -13 -15 -55 -15 -30 0 -55 -4 -55 -10 0 -5 -13
-10 -30 -10 -20 0 -30 -5 -30 -15 0 -8 -4 -15 -10 -15 -5 0 -10 -7 -10 -15 0
-10 -10 -15 -30 -15 -20 0 -30 -5 -30 -15 0 -9 -9 -15 -25 -15 -14 0 -25 -4
-25 -10 0 -5 -13 -10 -30 -10 -20 0 -30 -5 -30 -15 0 -12 -19 -15 -110 -15
-91 0 -110 3 -110 15 0 12 -16 15 -80 15 -47 0 -80 4 -80 10 0 6 -18 10 -40
10 -22 0 -40 -4 -40 -10 0 -6 -52 -10 -135 -10 -113 0 -135 -2 -135 -15 0 -12
-14 -15 -70 -15 -56 0 -70 -3 -70 -15 0 -11 -11 -15 -40 -15 -22 0 -40 -4 -40
-10 0 -5 -25 -10 -55 -10 -42 0 -55 -3 -55 -15 0 -9 -9 -15 -25 -15 -16 0 -25
-6 -25 -15 0 -10 -10 -15 -30 -15 -20 0 -30 -5 -30 -15 0 -9 -9 -15 -25 -15
-14 0 -25 -4 -25 -10 0 -5 -7 -10 -15 -10 -8 0 -15 -7 -15 -15 0 -8 -7 -15
-15 -15 -8 0 -15 -5 -15 -11 0 -14 -25 -39 -39 -39 -6 0 -11 -20 -11 -45 0
-33 -4 -45 -15 -45 -12 0 -15 -17 -15 -95 0 -78 -3 -95 -15 -95 -12 0 -15 -14
-15 -65 0 -37 -4 -65 -10 -65 -5 0 -10 -13 -10 -30 0 -20 -5 -30 -15 -30 -9 0
-15 -9 -15 -25 0 -16 -6 -25 -15 -25 -8 0 -15 -7 -15 -15 0 -8 -4 -15 -10 -15
-5 0 -10 -7 -10 -15 0 -10 -10 -15 -30 -15 -16 0 -30 -4 -30 -10 0 -5 -11 -10
-25 -10 -16 0 -25 -6 -25 -15 0 -10 -10 -15 -30 -15 -20 0 -30 -5 -30 -15 0
-8 -7 -15 -15 -15 -8 0 -15 -5 -15 -11 0 -14 -25 -39 -39 -39 -6 0 -11 -13
-11 -30 0 -20 -5 -30 -15 -30 -8 0 -15 -4 -15 -10 0 -5 -11 -10 -25 -10 -16 0
-25 -6 -25 -15 0 -11 -11 -15 -40 -15 -29 0 -40 -4 -40 -15 0 -12 -19 -15
-110 -15 -91 0 -110 -3 -110 -15 0 -12 -16 -15 -80 -15 -47 0 -80 -4 -80 -10
0 -6 -75 -10 -205 -10 -176 0 -205 -2 -205 -15 0 -13 -25 -15 -165 -15 -140 0
-165 2 -165 15 0 8 -7 15 -15 15 -8 0 -15 -7 -15 -15 0 -12 -17 -15 -95 -15
-78 0 -95 -3 -95 -15 0 -12 -14 -15 -65 -15 -51 0 -65 3 -65 15 0 10 -10 15
-30 15 -16 0 -30 5 -30 11 0 14 -25 39 -39 39 -6 0 -11 14 -11 30 0 20 -5 30
-15 30 -13 0 -15 41 -15 310 0 269 -2 310 -15 310 -10 0 -15 10 -15 30 0 17
-4 30 -10 30 -5 0 -10 11 -10 25 0 16 -6 25 -15 25 -8 0 -15 7 -15 15 0 8 -7
15 -15 15 -11 0 -15 11 -15 40 0 22 -4 40 -10 40 -5 0 -10 14 -10 30 0 20 -5
30 -15 30 -11 0 -15 11 -15 40 0 29 -4 40 -15 40 -11 0 -15 11 -15 40 0 29 -4
40 -15 40 -11 0 -15 11 -15 40 0 22 -4 40 -10 40 -5 0 -10 14 -10 30 0 20 -5
30 -15 30 -9 0 -15 9 -15 25 0 16 -6 25 -15 25 -8 0 -15 7 -15 15 0 8 -7 15
-15 15 -8 0 -15 5 -15 11 0 14 -25 39 -39 39 -6 0 -11 7 -11 15 0 9 -9 15 -25
15 -16 0 -25 6 -25 15 0 11 -12 15 -45 15 -25 0 -45 5 -45 10 0 6 -18 10 -40
10 -29 0 -40 4 -40 15 0 9 -9 15 -25 15 -16 0 -25 6 -25 15 0 10 -10 15 -30
15 -16 0 -30 5 -30 11 0 14 -25 39 -39 39 -6 0 -11 7 -11 15 0 9 -9 15 -25 15
-16 0 -25 6 -25 15 0 10 -10 15 -30 15 -16 0 -30 5 -30 10 0 6 -18 10 -40 10
-22 0 -40 -4 -40 -10 0 -5 -18 -10 -40 -10 -29 0 -40 -4 -40 -15 0 -8 -7 -15
-15 -15 -8 0 -15 -7 -15 -15 0 -9 -9 -15 -25 -15 -14 0 -25 -4 -25 -10 0 -5
-13 -10 -30 -10 -20 0 -30 -5 -30 -15 0 -9 -9 -15 -25 -15 -16 0 -25 -6 -25
-15 0 -12 -16 -15 -85 -15 -69 0 -85 -3 -85 -15 0 -11 -11 -15 -40 -15 -22 0
-40 -4 -40 -10 0 -5 -11 -10 -25 -10 -16 0 -25 -6 -25 -15 0 -8 -7 -15 -15
-15 -8 0 -15 -7 -15 -15 0 -8 -5 -15 -11 -15 -14 0 -39 -25 -39 -39 0 -6 -7
-11 -15 -11 -8 0 -15 -7 -15 -15 0 -12 -13 -15 -55 -15 -42 0 -55 3 -55 15 0
8 -7 15 -15 15 -9 0 -15 9 -15 25 0 14 -4 25 -10 25 -7 0 -10 -687 -10 -2040
l0 -2040 16670 0 16670 0 0 1931 c0 1716 -2 1929 -15 1915 -8 -8 -15 -19 -15
-25 0 -6 -7 -11 -15 -11 -8 0 -15 -7 -15 -15 0 -8 -7 -15 -15 -15 -8 0 -15 -4
-15 -10 0 -5 -7 -10 -15 -10 -8 0 -15 -7 -15 -15 0 -8 -4 -15 -10 -15 -5 0
-10 -7 -10 -15 0 -8 -7 -15 -15 -15 -8 0 -15 -7 -15 -15 0 -12 -13 -15 -55
-15 -30 0 -55 -4 -55 -10 0 -6 -107 -10 -300 -10 -193 0 -300 4 -300 10 0 6
-11 10 -25 10 -16 0 -25 6 -25 15 0 10 -10 15 -30 15 -20 0 -30 5 -30 15 0 8
-4 15 -10 15 -5 0 -10 7 -10 15 0 10 -10 15 -30 15 -16 0 -30 5 -30 10 0 6
-18 10 -40 10 -29 0 -40 4 -40 15 0 11 -11 15 -40 15 -29 0 -40 -4 -40 -15 0
-12 -14 -15 -70 -15 -40 0 -70 -4 -70 -10 0 -5 -18 -10 -40 -10 -29 0 -40 -4
-40 -15 0 -11 -11 -15 -40 -15 -29 0 -40 -4 -40 -15 0 -9 -9 -15 -25 -15 -16
0 -25 -6 -25 -15 0 -10 -10 -15 -30 -15 -16 0 -30 -4 -30 -10 0 -5 -11 -10
-25 -10 -16 0 -25 -6 -25 -15 0 -10 -10 -15 -30 -15 -20 0 -30 -5 -30 -15 0
-9 -9 -15 -25 -15 -14 0 -25 -4 -25 -10 0 -5 -13 -10 -30 -10 -20 0 -30 -5
-30 -15 0 -9 -9 -15 -25 -15 -16 0 -25 -6 -25 -15 0 -11 -11 -15 -40 -15 -29
0 -40 -4 -40 -15 0 -13 -23 -15 -150 -15 -93 0 -150 -4 -150 -10 0 -5 -18 -10
-40 -10 -29 0 -40 -4 -40 -15 0 -11 -12 -15 -45 -15 -33 0 -45 -4 -45 -15 0
-12 -14 -15 -65 -15 -51 0 -65 3 -65 15 0 10 -10 15 -30 15 -20 0 -30 5 -30
15 0 12 -18 15 -105 15 -87 0 -105 -3 -105 -15 0 -8 -7 -15 -15 -15 -8 0 -15
-7 -15 -15 0 -8 -7 -15 -15 -15 -8 0 -15 -7 -15 -15 0 -9 -9 -15 -25 -15 -14
0 -25 -4 -25 -10 0 -5 -7 -10 -15 -10 -8 0 -15 -7 -15 -15 0 -12 -20 -15 -120
-15 -100 0 -120 3 -120 15 0 11 -12 15 -45 15 -25 0 -45 5 -45 10 0 6 -42 10
-105 10 -63 0 -105 -4 -105 -10 0 -5 -13 -10 -30 -10 -20 0 -30 -5 -30 -15 0
-8 -7 -15 -15 -15 -8 0 -15 -7 -15 -15 0 -9 -9 -15 -25 -15 -14 0 -25 -4 -25
-10 0 -5 -25 -10 -55 -10 -42 0 -55 -3 -55 -15 0 -13 -31 -15 -215 -15 -184 0
-215 2 -215 15 0 12 -18 15 -100 15 -60 0 -100 4 -100 10 0 6 -55 10 -145 10
-90 0 -145 -4 -145 -10 0 -6 -62 -10 -165 -10 -103 0 -165 4 -165 10 0 6 -18
10 -40 10 -29 0 -40 4 -40 15 0 11 -11 15 -40 15 -29 0 -40 -4 -40 -15 0 -12
-16 -15 -85 -15 -69 0 -85 3 -85 15 0 9 -9 15 -25 15 -16 0 -25 6 -25 15 0 8
-7 15 -15 15 -8 0 -15 5 -15 10 0 6 -6 10 -12 10 -7 0 -14 12 -15 27 0 15 -6
29 -12 31 -6 2 -11 10 -11 18 0 8 -8 14 -17 14 -15 0 -16 2 -3 10 10 6 11 10
3 10 -7 0 -13 7 -13 15 0 8 -7 15 -15 15 -10 0 -15 10 -15 30 0 17 -5 30 -11
30 -13 0 -39 25 -39 38 0 6 -6 13 -12 15 -10 4 -10 6 0 6 17 1 15 21 -3 21 -8
0 -15 5 -15 10 0 6 -7 10 -15 10 -8 0 -15 7 -15 15 0 8 -4 15 -10 15 -5 0 -10
7 -10 15 0 8 -7 15 -15 15 -8 0 -15 7 -15 15 0 8 -7 15 -15 15 -8 0 -15 5 -15
10 0 6 -11 10 -25 10 -16 0 -25 6 -25 15 0 10 -10 15 -30 15 -20 0 -30 5 -30
15 0 12 -13 15 -55 15 -30 0 -55 5 -55 10 0 6 -38 10 -95 10 -57 0 -95 -4 -95
-10 0 -5 -11 -10 -25 -10 -16 0 -25 -6 -25 -15 0 -10 -10 -15 -30 -15 -16 0
-30 -5 -30 -11 0 -14 -25 -39 -39 -39 -6 0 -11 -20 -11 -45 0 -33 -4 -45 -15
-45 -12 0 -15 -13 -14 -62 0 -35 3 -57 6 -50 14 36 23 0 23 -98 0 -91 -3 -110
-15 -110 -9 0 -15 -10 -15 -26 0 -14 -6 -32 -14 -40 -8 -8 -26 -14 -40 -14
-16 0 -26 -6 -26 -15 0 -13 -28 -15 -189 -15 -187 0 -189 0 -195 23 -3 12 -6
239 -6 505 l0 483 30 6 c21 4 30 11 30 24 0 14 7 19 30 19 20 0 30 -5 30 -15
0 -10 10 -15 33 -15 17 0 42 -3 55 -6 18 -5 22 -2 22 15 0 14 6 21 19 21 11 0
22 8 24 18 4 16 5 16 6 0 1 -25 31 -23 31 2 0 13 7 20 20 20 13 0 20 7 20 20
0 17 7 20 45 20 38 0 45 3 45 20 0 13 7 20 20 20 15 0 20 7 20 26 0 21 3 24
20 19 12 -4 39 -4 60 0 30 5 40 11 40 26 0 14 7 19 25 19 19 0 25 5 25 21 0
19 4 21 30 16 46 -10 90 2 90 24 0 12 7 19 20 19 13 0 20 7 20 20 0 13 7 20
20 20 13 0 20 7 20 20 0 15 7 20 25 20 20 0 25 5 25 25 0 18 5 25 20 25 11 0
20 5 20 10 0 6 9 10 20 10 11 0 20 5 20 10 0 6 9 10 20 10 13 0 20 7 20 20 0
13 7 20 20 20 13 0 20 7 20 20 0 17 7 20 45 20 38 0 45 3 45 20 0 13 7 20 20
20 11 0 20 5 20 10 0 6 27 10 60 10 57 0 60 1 60 25 0 21 5 25 30 25 17 0 30
-4 30 -10 0 -5 7 -10 15 -10 11 0 15 11 15 40 l0 40 40 0 c33 0 40 3 40 20 0
13 7 20 20 20 13 0 20 7 20 20 0 13 7 20 20 20 11 0 20 7 20 15 0 11 12 15 45
15 41 0 45 2 45 25 0 18 5 25 20 25 11 0 20 7 20 15 0 8 9 15 20 15 11 0 20 5
20 10 0 6 9 10 20 10 13 0 20 7 20 20 0 13 7 20 20 20 11 0 20 5 20 10 0 6 9
10 20 10 11 0 20 4 20 9 0 5 20 12 45 15 29 5 45 12 45 22 0 8 9 14 20 14 11
0 20 5 20 10 0 6 9 10 20 10 16 0 20 7 20 30 0 23 4 30 20 30 15 0 20 7 20 25
0 14 5 25 10 25 6 0 10 -7 10 -15 0 -11 11 -15 40 -15 22 0 40 -4 40 -10 0 -5
7 -10 15 -10 11 0 15 12 15 45 0 38 3 45 20 45 13 0 20 7 20 20 0 13 7 20 20
20 16 0 20 7 20 30 0 33 25 43 33 13 3 -11 5 -7 6 10 1 20 6 27 21 27 14 0 20
7 20 21 0 19 4 21 36 16 20 -3 49 -3 65 0 27 5 29 9 29 49 0 37 3 44 20 44 13
0 20 7 20 20 0 11 5 20 10 20 6 0 10 -7 10 -15 0 -10 10 -15 30 -15 28 0 30 3
30 35 0 31 3 35 25 35 18 0 25 5 25 20 0 11 7 20 15 20 8 0 15 -7 15 -15 0 -9
9 -15 25 -15 22 0 25 4 25 34 0 32 2 35 40 41 30 5 40 11 40 26 0 12 7 19 20
19 13 0 20 7 20 20 0 17 7 20 45 20 38 0 45 3 45 20 0 13 -7 20 -20 20 -13 0
-20 7 -20 20 0 13 7 20 20 20 14 0 20 7 20 21 0 19 4 21 30 16 17 -4 44 -4 60
0 28 5 30 9 30 48 0 40 2 43 31 49 17 3 47 6 65 6 32 0 34 2 34 35 0 28 4 35
20 35 16 0 20 7 20 35 l0 35 60 0 c57 0 60 1 60 25 0 20 5 25 25 25 20 0 25 5
25 25 0 18 5 25 20 25 13 0 20 7 20 20 0 13 7 20 20 20 13 0 20 7 20 20 0 13
7 20 20 20 13 0 20 7 20 20 0 17 7 20 40 20 33 0 40 3 40 20 0 15 7 20 25 20
23 0 25 4 25 45 0 43 1 45 30 45 20 0 30 -5 30 -15 0 -8 5 -15 10 -15 6 0 10
7 10 15 0 8 9 15 20 15 17 0 20 7 20 40 0 33 3 40 20 40 13 0 20 7 20 20 0 13
7 20 20 20 16 0 20 7 20 34 0 32 2 34 45 40 39 6 45 10 45 32 0 17 5 24 20 24
17 0 20 7 20 40 0 33 3 40 20 40 13 0 20 7 20 20 0 13 7 20 20 20 13 0 20 7
20 20 0 13 7 20 20 20 17 0 20 7 20 40 0 39 1 40 35 40 24 0 35 -5 35 -15 0
-8 5 -15 10 -15 6 0 10 18 10 40 l0 40 40 0 c31 0 40 4 41 18 0 10 3 12 6 5
10 -27 33 -13 33 21 0 28 4 34 25 38 17 4 25 1 25 -8 0 -8 9 -14 20 -14 11 0
20 5 20 10 0 6 9 10 20 10 13 0 20 7 20 20 0 25 27 27 33 3 4 -17 5 -17 6 0 1
10 9 17 21 17 17 0 20 7 20 50 l0 50 40 0 c29 0 40 4 40 15 0 9 9 15 25 15 23
0 25 4 25 40 0 33 3 40 20 40 17 0 20 7 20 40 0 29 4 40 15 40 8 0 15 -4 15
-10 0 -5 7 -10 15 -10 8 0 15 -7 15 -15 0 -8 5 -15 10 -15 6 0 10 -7 10 -15 0
-8 9 -15 20 -15 18 0 20 7 20 65 0 37 4 65 10 65 6 0 10 -4 10 -10 0 -5 11
-10 25 -10 16 0 25 -6 25 -15 0 -10 10 -15 30 -15 29 0 30 2 30 45 0 38 3 45
20 45 17 0 20 7 20 40 0 33 3 40 20 40 11 0 20 7 20 15 0 11 11 15 40 15 36 0
40 3 40 25 0 20 5 25 25 25 23 0 25 4 25 43 l0 44 80 -5 c69 -4 80 -2 80 12 0
12 10 16 45 16 41 0 45 2 45 25 0 23 4 25 40 25 29 0 40 4 40 15 0 9 9 15 25
15 16 0 25 -6 25 -15 0 -8 7 -15 15 -15 8 0 15 -4 15 -10 0 -5 9 -10 20 -10
16 0 20 7 20 35 0 28 4 35 20 35 11 0 20 -4 20 -10 0 -5 18 -10 39 -10 22 0
42 -5 44 -12 4 -10 6 -10 6 0 1 8 18 12 51 12 38 0 50 4 50 15 0 12 15 15 75
15 60 0 75 3 75 15 0 8 9 15 20 15 15 0 20 7 20 25 0 16 6 25 15 25 8 0 15 -7
15 -15 0 -11 11 -15 40 -15 29 0 40 -4 40 -15 0 -10 10 -15 30 -15 17 0 30 -4
30 -10 0 -5 11 -10 25 -10 16 0 25 -6 25 -15 0 -10 10 -15 30 -15 20 0 30 -5
30 -15 0 -9 9 -15 25 -15 14 0 25 -4 25 -10 0 -6 33 -10 80 -10 64 0 80 -3 80
-15 0 -11 12 -15 45 -15 33 0 45 -4 45 -15 0 -11 11 -15 40 -15 29 0 40 -4 40
-15 0 -9 9 -15 25 -15 14 0 25 -4 25 -10 0 -5 14 -10 30 -10 20 0 30 -5 30
-15 0 -8 7 -15 15 -15 13 0 15 1419 15 12710 l0 12710 -16670 0 -16670 0 0
-9035z m19600 1350 c377 -27 837 -78 1119 -124 l115 -18 78 40 c133 70 230 63
321 -22 63 -59 103 -118 218 -322 186 -331 293 -483 446 -636 117 -116 235
-204 385 -289 l118 -67 2 -1918 3 -1919 425 440 c234 242 427 440 430 440 3 0
69 -129 148 -286 l143 -286 -188 -1096 -187 -1097 -199 -262 c-109 -145 -201
-263 -205 -263 -4 0 -88 114 -187 252 l-180 252 -5 -1394 -5 -1395 -226 -280
c-125 -154 -450 -557 -723 -895 l-496 -614 0 -928 c0 -595 3 -928 10 -928 19
0 356 81 484 116 459 127 850 288 1187 492 l134 80 180 23 c226 29 474 31 615
5 186 -33 388 -116 547 -223 174 -117 471 -399 593 -563 73 -99 125 -202 142
-283 33 -157 -69 -299 -244 -338 -79 -18 -404 -18 -568 0 -206 22 -567 70
-988 131 -817 119 -1070 145 -1427 145 -300 0 -407 -14 -522 -69 -65 -32 -124
-84 -137 -123 -4 -10 -34 -34 -68 -53 -34 -19 -97 -69 -139 -111 -177 -176
-235 -423 -143 -604 56 -111 157 -177 307 -200 l37 -6 -2 -206 -3 -206 -170
-116 c-1364 -926 -2721 -1302 -4085 -1131 -918 115 -1846 486 -2774 1110
l-201 136 -3 206 -2 206 71 10 c296 44 423 336 275 630 -63 125 -185 247 -303
305 l-43 21 0 1340 0 1341 -558 611 c-306 336 -632 693 -724 794 l-168 183 0
1340 0 1340 -147 -205 -146 -206 -22 27 c-12 14 -103 134 -202 266 l-181 240
-187 1095 -188 1094 144 288 c79 158 147 287 150 286 3 -2 179 -182 390 -400
l384 -397 3 727 2 727 83 44 c235 125 511 335 761 580 255 251 402 424 825
966 476 611 711 868 1016 1112 269 215 512 352 925 520 747 306 1577 481 2510
532 236 13 964 5 1220 -14z m-8155 -12917 c23 -59 117 -226 183 -327 221 -336
563 -653 959 -889 61 -37 110 -68 108 -70 -9 -9 -917 -151 -1140 -178 -71 -9
-264 -17 -470 -21 -289 -4 -375 -2 -493 11 -244 29 -421 86 -517 169 -85 73
-122 192 -95 308 33 149 172 361 390 598 138 150 212 209 350 280 201 104 407
155 641 160 l67 1 17 -42z m-4113 -896 c-6 -2 -12 -10 -12 -18 0 -8 -7 -14
-15 -14 -8 0 -15 -7 -15 -15 0 -8 -7 -15 -15 -15 -8 0 -15 -4 -15 -10 0 -5 -7
-10 -15 -10 -8 0 -15 -7 -15 -15 0 -8 -6 -15 -12 -15 -9 0 -9 -3 1 -9 12 -8
12 -12 -2 -25 -8 -9 -20 -16 -26 -16 -6 0 -11 -7 -11 -15 0 -8 -7 -15 -15 -15
-8 0 -15 -7 -15 -15 0 -8 -4 -15 -10 -15 -5 0 -10 -7 -10 -15 0 -8 -7 -15 -15
-15 -8 0 -15 -4 -15 -10 0 -5 -7 -10 -15 -10 -10 0 -15 -10 -15 -30 0 -20 -5
-30 -15 -30 -8 0 -15 -6 -15 -13 0 -7 -9 -19 -20 -27 -10 -8 -22 -27 -25 -42
-4 -15 -13 -28 -21 -28 -8 0 -14 -10 -14 -25 0 -14 -4 -25 -10 -25 -5 0 -10
-18 -10 -40 0 -29 -4 -40 -15 -40 -13 0 -15 -21 -15 -129 0 -102 3 -133 15
-145 8 -8 15 -31 15 -50 0 -20 5 -36 10 -36 6 0 10 -18 10 -40 0 -22 -4 -40
-10 -40 -5 0 -10 7 -10 15 0 10 -10 15 -30 15 -20 0 -30 5 -30 15 0 8 -5 15
-11 15 -19 0 -39 28 -39 54 0 16 -6 26 -15 26 -8 0 -15 5 -15 10 0 6 -7 10
-15 10 -10 0 -15 10 -15 30 0 20 -5 30 -15 30 -11 0 -15 11 -15 40 0 22 -4 40
-10 40 -6 0 -10 30 -10 70 0 40 4 70 10 70 6 0 10 25 10 55 0 42 3 55 15 55 9
0 15 9 15 25 0 16 6 25 15 25 9 0 15 9 15 25 0 16 6 25 15 25 8 0 15 7 15 15
0 8 5 15 10 15 6 0 10 7 10 15 0 8 7 15 15 15 9 0 15 9 15 25 0 16 6 25 15 25
8 0 15 7 15 15 0 8 7 15 15 15 8 0 15 7 15 15 0 8 5 15 10 15 6 0 10 7 10 15
0 9 10 15 26 15 26 0 54 20 54 39 0 6 7 11 15 11 8 0 15 7 15 15 0 9 10 15 26
15 26 0 54 20 54 39 0 6 14 11 30 11 20 0 30 5 30 15 0 9 9 15 25 15 16 0 25
6 25 15 0 10 10 15 30 15 17 0 30 5 31 13 0 6 6 1 12 -12 9 -19 9 -25 -1 -29z
m5642 -888 c22 -11 47 -35 58 -54 17 -34 18 -168 18 -4017 l0 -3983 -40 0 -40
0 -2 -418 -3 -417 -117 -3 -118 -3 0 421 0 420 -45 0 -46 0 3 3989 3 3990 21
28 c11 15 40 38 65 51 37 20 56 23 124 20 57 -2 91 -9 119 -24z m8615 3 c27
-14 51 -36 62 -57 18 -34 19 -158 19 -4017 l0 -3983 -40 0 -40 0 -2 -418 -3
-417 -117 -3 -118 -3 0 421 0 420 -45 0 -46 0 3 3989 3 3990 21 28 c11 15 40
38 64 51 62 31 177 31 239 -1z m9101 -3727 c0 -5 -4 -10 -10 -10 -5 0 -10 5
-10 10 0 6 5 10 10 10 6 0 10 -4 10 -10z m1830 -4085 c0 -9 9 -15 25 -15 16 0
25 -6 25 -15 0 -8 7 -15 15 -15 11 0 15 -11 15 -40 0 -29 -4 -40 -15 -40 -11
0 -15 -11 -15 -40 0 -29 -4 -40 -15 -40 -8 0 -15 -7 -15 -15 0 -8 -4 -15 -10
-15 -5 0 -10 -7 -10 -15 0 -11 -11 -15 -40 -15 -29 0 -40 4 -40 15 0 8 -7 15
-15 15 -8 0 -15 7 -15 15 0 8 -7 15 -15 15 -9 0 -15 9 -15 25 0 16 -6 25 -15
25 -12 0 -15 13 -15 55 0 42 3 55 15 55 8 0 15 7 15 15 0 10 10 15 30 15 20 0
30 5 30 15 0 11 11 15 40 15 29 0 40 -4 40 -15z m-5420 -465 c0 -5 14 -10 30
-10 28 0 30 -2 30 -40 0 -29 -4 -40 -15 -40 -8 0 -15 -7 -15 -15 0 -10 -10
-15 -30 -15 -25 0 -30 4 -30 25 0 14 -4 25 -10 25 -5 0 -10 14 -10 30 0 20 5
30 15 30 8 0 15 5 15 10 0 6 5 10 10 10 6 0 10 -4 10 -10z m3570 -420 c0 -16
5 -30 10 -30 6 0 10 -33 10 -80 0 -47 -4 -80 -10 -80 -5 0 -10 -7 -10 -15 0
-8 -7 -15 -15 -15 -8 0 -15 -7 -15 -15 0 -8 -7 -15 -15 -15 -8 0 -15 -4 -15
-10 0 -6 -33 -10 -80 -10 -64 0 -80 -3 -80 -15 0 -11 -11 -15 -40 -15 -29 0
-40 -4 -40 -15 0 -12 -17 -15 -95 -15 -78 0 -95 3 -95 15 0 8 -7 15 -15 15 -8
0 -15 7 -15 15 0 8 -7 15 -15 15 -11 0 -15 11 -15 40 0 29 4 40 15 40 8 0 15
7 15 15 0 8 7 15 15 15 8 0 15 5 15 10 0 6 57 10 150 10 127 0 150 2 150 15 0
8 5 15 10 15 6 0 10 7 10 15 0 8 7 15 15 15 9 0 15 9 15 25 0 16 6 25 15 25 8
0 15 7 15 15 0 8 5 15 10 15 6 0 10 7 10 15 0 11 12 15 45 15 43 0 45 -1 45
-30z m-3300 -135 c0 -16 6 -25 15 -25 11 0 15 -12 15 -45 0 -33 -4 -45 -15
-45 -8 0 -15 -4 -15 -10 0 -5 -11 -10 -25 -10 -16 0 -25 -6 -25 -15 0 -12 -16
-15 -80 -15 -64 0 -80 3 -80 15 0 8 -7 15 -15 15 -8 0 -15 5 -15 10 0 6 7 10
15 10 10 0 15 10 15 30 0 17 5 30 10 30 6 0 10 11 10 25 0 16 6 25 15 25 8 0
15 7 15 15 0 12 16 15 80 15 79 0 80 0 80 -25z m3510 -260 c0 -10 10 -15 30
-15 28 0 30 -2 30 -40 0 -38 -2 -40 -30 -40 -20 0 -30 -5 -30 -15 0 -11 -12
-15 -50 -15 -38 0 -50 4 -50 15 0 8 -7 15 -15 15 -8 0 -15 7 -15 15 0 8 -7 15
-15 15 -9 0 -15 9 -15 25 0 16 6 25 15 25 8 0 15 7 15 15 0 12 14 15 65 15 51
0 65 -3 65 -15z m-3899 -205 c5 0 9 -7 9 -15 0 -8 7 -15 15 -15 9 0 15 -9 15
-25 0 -16 6 -25 15 -25 8 0 15 -7 15 -15 0 -11 11 -15 40 -15 29 0 40 -4 40
-15 0 -9 9 -15 25 -15 14 0 25 -4 25 -10 0 -5 18 -10 40 -10 29 0 40 -4 40
-15 0 -13 28 -15 195 -15 167 0 195 -2 195 -15 0 -9 9 -15 25 -15 14 0 25 -4
25 -10 0 -5 7 -10 15 -10 8 0 15 -7 15 -15 0 -8 11 -17 25 -21 14 -3 25 -10
25 -15 0 -5 7 -9 15 -9 8 0 15 -7 15 -15 0 -12 13 -15 55 -15 42 0 55 3 55 15
0 12 13 15 55 15 42 0 55 -3 55 -15 0 -9 9 -15 25 -15 14 0 25 -4 25 -10 0 -5
7 -10 15 -10 8 0 15 -7 15 -15 0 -8 -7 -15 -15 -15 -10 0 -15 -10 -15 -30 0
-20 -5 -30 -15 -30 -8 0 -15 -4 -15 -10 0 -5 -11 -10 -25 -10 -16 0 -25 -6
-25 -15 0 -8 -7 -15 -15 -15 -8 0 -15 -7 -15 -15 0 -9 -9 -15 -25 -15 -14 0
-25 -4 -25 -10 0 -5 -7 -10 -15 -10 -12 0 -15 -13 -15 -55 0 -42 3 -55 15 -55
10 0 15 -10 15 -30 0 -20 5 -30 15 -30 11 0 15 -11 15 -40 0 -22 5 -40 10 -40
6 0 10 -7 10 -15 0 -8 -4 -15 -10 -15 -5 0 -10 -11 -10 -25 0 -23 -4 -25 -45
-25 -33 0 -45 -4 -45 -15 0 -12 -13 -15 -55 -15 -42 0 -55 3 -55 15 0 11 -12
15 -50 15 -38 0 -50 4 -50 15 0 12 -19 15 -110 15 -91 0 -110 -3 -110 -15 0
-10 -10 -15 -30 -15 -20 0 -30 -5 -30 -15 0 -9 -9 -15 -25 -15 -16 0 -25 -6
-25 -15 0 -11 -11 -15 -40 -15 -22 0 -40 -4 -40 -10 0 -5 -13 -10 -30 -10 -16
0 -30 5 -30 10 0 6 -11 10 -25 10 -16 0 -25 6 -25 15 0 10 -10 15 -30 15 -20
0 -30 5 -30 15 0 8 -4 15 -10 15 -5 0 -10 7 -10 15 0 8 -7 15 -15 15 -8 0 -15
5 -15 10 0 6 -7 10 -15 10 -8 0 -15 7 -15 15 0 8 -4 15 -10 15 -5 0 -10 7 -10
15 0 10 -10 15 -30 15 -20 0 -30 5 -30 15 0 8 -7 15 -15 15 -9 0 -15 9 -15 25
0 14 -4 25 -10 25 -5 0 -10 18 -10 40 0 29 -4 40 -15 40 -8 0 -15 7 -15 15 0
10 -10 15 -30 15 -16 0 -30 5 -30 11 0 14 -25 39 -39 39 -6 0 -11 7 -11 15 0
11 -12 15 -50 15 -38 0 -50 4 -50 15 0 11 -12 15 -50 15 l-50 0 0 148 0 149
25 11 c14 7 35 12 45 12 11 0 20 7 20 15 0 10 10 15 30 15 20 0 30 5 30 15 0
9 9 15 25 15 16 0 25 6 25 15 0 9 9 15 25 15 14 0 25 5 25 10 0 6 7 10 15 10
8 0 15 7 15 15 0 10 10 15 30 15 20 0 30 5 30 15 0 11 12 15 50 15 33 0 51 4
51 13 1 6 4 0 6 -15 2 -16 9 -28 14 -28z m3879 -695 c0 -11 11 -15 40 -15 22
0 40 -4 40 -10 0 -5 7 -10 15 -10 8 0 15 -7 15 -15 0 -9 9 -15 25 -15 16 0 25
-6 25 -15 0 -8 7 -15 15 -15 9 0 15 -9 15 -25 0 -16 -6 -25 -15 -25 -8 0 -15
-7 -15 -15 0 -8 -7 -15 -15 -15 -8 0 -15 -7 -15 -15 0 -9 -9 -15 -25 -15 -16
0 -25 -6 -25 -15 0 -10 -10 -15 -30 -15 -16 0 -30 -4 -30 -10 0 -5 -11 -10
-25 -10 -16 0 -25 -6 -25 -15 0 -9 -9 -15 -25 -15 -16 0 -25 -6 -25 -15 0 -12
-13 -15 -55 -15 -42 0 -55 3 -55 15 0 11 -12 15 -45 15 -25 0 -45 5 -45 11 0
14 -25 39 -39 39 -6 0 -11 7 -11 15 0 8 -7 15 -15 15 -8 0 -15 7 -15 15 0 8
-4 15 -10 15 -5 0 -10 7 -10 15 0 8 -7 15 -15 15 -12 0 -15 13 -15 55 0 42 3
55 15 55 8 0 15 5 15 10 0 6 18 10 40 10 29 0 40 4 40 15 0 13 23 15 150 15
127 0 150 -2 150 -15z m-850 -25 c0 -5 7 -10 15 -10 10 0 15 -10 15 -30 0 -20
-5 -30 -15 -30 -8 0 -15 -7 -15 -15 0 -12 -13 -15 -55 -15 l-55 0 0 45 c0 33
4 45 15 45 8 0 15 5 15 10 0 6 18 10 40 10 22 0 40 -4 40 -10z m-2830 -275 c0
-11 11 -15 40 -15 22 0 40 -4 40 -10 0 -5 14 -10 30 -10 20 0 30 -5 30 -15 0
-9 9 -15 25 -15 16 0 25 -6 25 -15 0 -12 19 -15 110 -15 91 0 110 -3 110 -15
0 -11 11 -15 40 -15 22 0 40 -4 40 -10 0 -5 7 -10 15 -10 10 0 15 -10 15 -30
0 -16 -5 -30 -11 -30 -14 0 -39 -25 -39 -39 0 -6 -13 -11 -30 -11 -20 0 -30
-5 -30 -15 0 -12 -16 -15 -80 -15 -64 0 -80 3 -80 15 0 12 -13 15 -55 15 -42
0 -55 3 -55 15 0 12 -14 15 -70 15 -40 0 -70 4 -70 10 0 6 -18 10 -40 10 -29
0 -40 4 -40 15 0 11 -11 15 -40 15 -29 0 -40 4 -40 15 0 9 -9 15 -25 15 -14 0
-25 5 -25 10 0 6 -13 10 -30 10 -30 0 -30 1 -30 55 0 54 0 55 30 55 20 0 30 5
30 15 0 12 18 15 105 15 87 0 105 -3 105 -15z m1470 -160 c0 -8 7 -15 15 -15
8 0 15 -7 15 -15 0 -8 7 -15 15 -15 8 0 15 -4 15 -10 0 -6 -34 -10 -81 -10
-88 0 -109 10 -109 54 0 25 2 26 65 26 51 0 65 -3 65 -15z m760 0 c0 -8 7 -15
15 -15 8 0 15 -7 15 -15 0 -8 7 -15 15 -15 8 0 15 -4 15 -10 0 -5 7 -10 15
-10 8 0 15 -7 15 -15 0 -8 -7 -15 -15 -15 -8 0 -15 -7 -15 -15 0 -8 -7 -15
-15 -15 -8 0 -15 -7 -15 -15 0 -9 -9 -15 -25 -15 -14 0 -25 -4 -25 -10 0 -5
-13 -10 -30 -10 -20 0 -30 -5 -30 -15 0 -13 -23 -15 -150 -15 -127 0 -150 2
-150 15 0 9 -9 15 -25 15 -20 0 -25 5 -25 25 0 16 6 25 15 25 8 0 15 7 15 15
0 12 13 15 55 15 42 0 55 3 55 15 0 11 11 15 40 15 22 0 40 5 40 10 0 6 11 10
25 10 16 0 25 6 25 15 0 8 7 15 15 15 8 0 15 7 15 15 0 12 14 15 65 15 51 0
65 -3 65 -15z"/>
<path d="M19458 22505 c-181 -15 -545 -53 -565 -60 -18 -6 -19 -995 -1 -995 7
0 523 122 1147 271 625 149 1145 271 1156 271 11 0 182 -50 379 -111 198 -61
361 -109 363 -107 2 1 -16 29 -38 62 -252 358 -705 578 -1359 660 -183 23
-844 28 -1082 9z"/>
<path d="M15215 21979 c-1047 -57 -1745 -275 -2240 -702 -97 -83 -247 -237
-231 -237 4 0 72 49 151 109 136 102 148 109 202 114 32 3 686 45 1453 92 767
48 1401 90 1408 94 8 3 61 123 119 265 84 205 102 260 92 267 -17 11 -748 9
-954 -2z"/>
<path d="M27260 1980 c0 -5 7 -10 15 -10 8 0 15 5 15 10 0 6 -7 10 -15 10 -8
0 -15 -4 -15 -10z"/>
<path d="M27620 1185 c0 -10 -10 -15 -30 -15 -20 0 -30 -5 -30 -15 0 -10 -10
-15 -27 -16 -25 0 -26 -1 -8 -9 17 -7 17 -9 3 -9 -14 -1 -18 -10 -18 -46 0
-33 4 -45 15 -45 8 0 15 -4 15 -10 0 -5 25 -10 55 -10 30 0 55 5 55 10 0 6 18
10 40 10 29 0 40 4 40 15 0 9 9 15 25 15 16 0 25 6 25 15 0 8 7 15 15 15 11 0
15 11 15 40 0 29 -4 40 -15 40 -8 0 -15 7 -15 15 0 12 -16 15 -80 15 -64 0
-80 -3 -80 -15z"/>
<path d="M190 4530 c0 -5 -13 -10 -30 -10 -20 0 -30 -5 -30 -15 0 -8 -7 -15
-15 -15 -11 0 -15 -11 -15 -40 0 -29 4 -40 15 -40 8 0 15 -7 15 -15 0 -11 11
-15 40 -15 29 0 40 -4 40 -15 0 -12 16 -15 85 -15 69 0 85 3 85 15 0 8 5 15
10 15 6 0 10 18 10 40 0 22 -4 40 -10 40 -5 0 -10 7 -10 15 0 8 -7 15 -15 15
-8 0 -15 7 -15 15 0 8 -7 15 -15 15 -8 0 -15 5 -15 10 0 6 -28 10 -65 10 -37
0 -65 -4 -65 -10z"/>
<path d="M0 4355 c0 -14 5 -25 10 -25 6 0 10 11 10 25 0 14 -4 25 -10 25 -5 0
-10 -11 -10 -25z"/>
</g>
</svg>
